<svg width="246" height="97" viewBox="0 0 246 97" fill="none" xmlns="http://www.w3.org/2000/svg">
<path d="M96.6364 39.8463C97.9091 40.0197 99.4545 40.063 101.273 39.8896C103.091 39.7596 104 39.4995 104 39.1527C104 38.9359 103.091 38.0256 101.318 36.4217C100.591 35.7714 99.7273 35.1212 98.7273 34.4709C97.7273 33.8207 96.9091 33.3438 96.2727 33.0404L94 32L94.3636 39.4128L96.6364 39.8463Z" fill="#F0E8CD"/>
<path d="M103.759 17.195C107.464 21.7589 109.826 24.3404 110.798 24.9858L112.466 26L113.809 24.8936C114.827 24.0638 116.495 22.4504 118.81 20.0993C121.126 17.7482 123.256 15.4433 125.201 13.1844C127.933 10.0035 129.971 7.69858 131.36 6.2234C132.333 5.07092 133.027 4.19504 133.398 3.50355C133.815 2.85816 134 2.21277 134 1.61348C134 0.553192 133.722 0 133.166 0C132.611 0 132.055 0.368794 131.453 1.10638C131.082 1.52128 130.388 2.35106 129.323 3.64184C129.045 3.96454 128.489 4.60993 127.702 5.53192C126.868 6.4539 126.359 7.09929 126.127 7.42199C121.635 12.539 118.532 15.9043 116.865 17.5177C115.476 18.8085 114.411 19.8688 113.716 20.7908C113.16 21.5745 112.558 21.8511 111.91 21.6667C111.4 21.4823 109.733 19.6844 106.955 16.2269C104.176 12.7695 101.953 9.77305 100.24 7.23759C98.665 4.84043 97.5073 3.27305 96.8126 2.44326C96.118 1.61348 95.5159 1.15248 95.0065 1.10638C94.7286 1.06028 94.5434 1.06028 94.4045 1.15248C93.5246 1.61348 94.0803 3.50355 96.0716 6.8227C97.5073 9.17376 100.054 12.6312 103.759 17.195Z" fill="#F0E8CD"/>
<path d="M105.276 7.16034C106.088 8.13744 106.805 8.92842 107.33 9.57981C107.903 10.2312 108.429 10.8361 108.906 11.3944C109.384 11.9528 109.814 12.3715 110.148 12.6972C110.483 13.0229 110.817 13.2555 111.104 13.4882C111.39 13.7208 111.677 13.8604 111.916 13.9069C112.154 14 112.345 14 112.537 14C112.728 14 112.966 13.9535 113.205 13.8604C113.54 13.7208 114.017 13.3951 114.686 12.8368C115.355 12.325 115.928 11.7666 116.453 11.1618C117.934 9.57981 119.51 7.99785 121.277 6.41589C123.092 4.69435 124 3.43808 124 2.74016C124 2.22835 123.857 1.85612 123.57 1.67001C123.284 1.48389 122.567 1.34431 121.421 1.25125C119.271 0.972083 115.641 0.925555 110.674 1.11167C105.658 1.25125 102.888 1.53042 102.363 1.90265C101.933 2.18182 101.885 2.6471 102.219 3.20544C102.554 3.76378 103.605 5.1131 105.276 7.16034Z" fill="#F0E8CD"/>
<path d="M134.136 39.503C134.714 39.373 135.196 39.1996 135.63 38.9396C136.064 38.7229 136.353 38.3329 136.546 37.8562C136.739 37.3795 136.835 36.8161 136.932 36.166C136.98 35.516 137.028 34.6492 136.98 33.5658C136.884 30.7055 136.787 29.1021 136.643 28.7554C136.546 28.582 136.498 28.4087 136.498 28.3653C136.305 27.9753 135.968 27.8886 135.437 28.1486C134.811 28.4953 132.208 30.5322 127.676 34.3025C126.423 35.3426 125.314 36.296 124.398 37.2061C123.482 38.0729 123 38.6363 123 38.8529C123 39.243 123.916 39.5897 125.7 39.8064C127.531 40.023 129.508 40.0664 131.725 39.893C132.786 39.7197 133.557 39.633 134.136 39.503Z" fill="#F0E8CD"/>
<path d="M131.799 11.7593C131.103 12.4679 130.406 13.2238 129.802 14.0269C129.059 14.9717 128.131 16.1055 127.016 17.3337C125.902 18.6092 124.973 19.6013 124.276 20.4044C123.58 21.2075 122.419 22.3885 120.887 23.9474C119.354 25.5536 118.379 26.4984 118.054 26.8764C115.871 29.1439 114.432 30.7501 113.782 31.6949C113.41 32.1673 112.992 32.5453 112.575 32.876C112.157 33.1594 111.785 33.3011 111.553 33.2539C111.089 33.2066 110.021 32.2146 108.349 30.3722C106.631 28.4826 104.82 26.3095 102.916 23.7585C101.708 22.1523 100.687 20.8768 99.8974 19.8847C97.3899 16.7668 95.7646 15.2551 95.0216 15.4441C94.3251 15.5858 94 17.3337 94 20.5933V25.4119L97.5756 28.3881C103.566 33.4428 107.188 36.3718 108.395 37.2693C109.603 38.1669 110.856 38.6866 112.157 38.8283L112.203 38.8755C113.968 39.1117 115.639 39.0173 117.172 38.5448C118.704 38.1197 119.865 37.4111 120.701 36.4663C121.537 35.427 125.53 31.1753 132.774 23.664C134.678 21.7271 135.839 20.3099 136.303 19.4123C136.721 18.5147 136.954 17.192 137 15.3024C137 13.1765 136.675 11.7121 135.978 10.909C135.514 10.3893 135.143 10.0586 134.864 10.0114C134.585 9.96416 134.167 10.0586 133.61 10.3893C133.053 10.6255 132.496 11.0979 131.799 11.7593Z" fill="#F0E8CD"/>
<path d="M38.0216 83.8172C37.3235 87.4714 35.6947 90.3855 33.1816 92.5132C30.6686 94.641 27.597 95.7048 23.9671 95.7048C19.2202 95.7048 15.4041 93.9009 12.5187 90.293C9.63337 86.685 8.19069 81.8744 8.19069 75.815C8.19069 69.848 9.63337 65.13 12.5187 61.6145C15.4041 58.0991 19.2667 56.3414 24.1532 56.3414C27.504 56.3414 30.2497 57.2203 32.3905 58.9317C34.5312 60.6432 36.1135 63.2797 37.1373 66.7952L37.7423 66.9339L39.8365 59.533C37.4631 58.0529 34.857 56.8965 32.0647 56.1564C29.2259 55.37 26.294 55 23.1759 55C16.2883 55 10.7037 56.8965 6.42225 60.7357C2.14075 64.5749 0 69.5705 0 75.7687C0 82.1057 2.14075 87.1938 6.42225 91.1256C10.7037 95.0573 16.2418 97 23.0363 97C26.5267 97 29.7378 96.5374 32.6697 95.6586C35.6016 94.7797 38.3939 93.3921 41 91.4956L38.58 83.6784L38.0216 83.8172Z" fill="#F0E8CD"/>
<path d="M77.91 93.0248C77.3481 91.7696 77.0672 88.8409 77.0672 84.1457V83.4483V78.0558C77.0672 72.8492 76.0372 69.0837 73.9772 66.6198C71.9172 64.2025 68.7335 62.9938 64.3794 62.9938C61.2425 62.9938 58.5738 63.7376 56.4202 65.2717C54.2665 66.8058 52.7683 68.9442 51.8788 71.8264V62.7149C51.8788 60.1116 51.9256 57.9266 51.9724 56.0671C52.0192 54.2076 52.1128 52.5341 52.2065 51C50.3806 51.6508 48.6483 52.1622 47.0564 52.5341C45.4646 52.906 43.9664 53.1384 42.6086 53.2779V53.7428C43.9664 53.8357 44.8559 54.2541 45.3241 54.9514C45.7923 55.6952 46.0264 57.3688 46.0264 59.9256V81.7748V83.8203C46.0264 88.469 45.7455 91.4907 45.1837 92.8388C44.6218 94.2335 43.545 95.1167 42 95.5351L42.0468 96C43.03 95.9535 44.0132 95.907 45.09 95.8605C46.12 95.814 47.5246 95.814 49.2569 95.814C50.3806 95.814 51.5042 95.814 52.6279 95.8605C53.7515 95.907 54.8752 95.9535 56.0456 96V95.5351C54.5006 95.1167 53.4706 94.28 52.9088 92.9318C52.3469 91.5837 52.066 88.469 52.066 83.5878V78.6136C52.066 74.3833 53.0024 71.0362 54.8752 68.5723C56.7479 66.1085 59.2761 64.8533 62.413 64.8533C65.3157 64.8533 67.5162 65.969 68.9208 68.2004C70.3253 70.4318 71.0276 73.9184 71.0276 78.5671V81.7283V83.7738C71.0276 88.376 70.7467 91.3977 70.1849 92.7924C69.6231 94.187 68.5462 95.0702 67.0012 95.5351V96C67.9844 95.9535 68.9676 95.907 70.0444 95.8605C71.0744 95.814 72.479 95.814 74.1645 95.814C75.2881 95.814 76.4118 95.814 77.5354 95.8605C78.6591 95.907 79.7827 95.9535 80.9532 96L81 95.5351C79.5486 95.1167 78.5186 94.28 77.91 93.0248Z" fill="#F0E8CD"/>
<path d="M112.997 67.7091C109.678 64.554 105.377 63 100.094 63C94.7636 63 90.4156 64.554 87.0494 67.662C83.6831 70.7701 82 74.7729 82 79.6704C82 84.8033 83.6364 88.9945 86.9558 92.1967C90.2286 95.3989 94.5299 97 99.8597 97C105.283 97 109.678 95.446 112.997 92.2909C116.317 89.1357 118 85.0388 118 79.9529C117.953 74.9612 116.27 70.8643 112.997 67.7091ZM108.088 91.7258C106.218 94.4571 103.506 95.8698 100.047 95.8698C96.5403 95.8698 93.7818 94.5042 91.9117 91.7258C89.9948 88.9474 89.0597 85.0388 89.0597 79.9058C89.0597 74.9612 90.0416 71.0997 91.9584 68.3213C93.8753 65.5429 96.5403 64.1302 99.9065 64.1302C103.46 64.1302 106.171 65.4958 108.088 68.2271C110.005 70.9584 110.94 74.867 110.94 79.9529C110.94 85.0859 110.005 88.9945 108.088 91.7258Z" fill="#F0E8CD"/>
<path d="M154.859 92.9324C154.297 91.6775 154.016 88.5169 154.016 83.4507V78.0592C154.016 72.8535 152.984 69.0887 150.922 66.6254C148.859 64.2085 145.672 63 141.359 63C138.031 63 135.312 63.8366 133.156 65.4634C131 67.1366 129.453 69.6 128.469 72.9V63.7901C126.875 64.3479 125.328 64.8127 123.828 65.1845C122.375 65.5563 120.969 65.8352 119.562 66.0211V66.4859C120.875 66.5789 121.813 66.9507 122.281 67.6944C122.75 68.438 122.984 70.1113 122.984 72.7606V81.731V84.3338C122.984 88.7493 122.703 91.5845 122.141 92.8859C121.578 94.1873 120.547 95.0704 119 95.5352V96C119.984 95.9535 120.969 95.907 122.047 95.8606C123.078 95.8141 124.484 95.8141 126.219 95.8141C127.344 95.8141 128.469 95.8141 129.594 95.8606C130.719 95.907 131.844 95.9535 133.016 96V95.5352C131.516 95.1169 130.484 94.2803 129.875 92.9324C129.312 91.5845 129.031 88.4704 129.031 83.5901V78.6169C129.031 74.3873 129.969 71.0408 131.844 68.5775C133.719 66.1141 136.203 64.8592 139.344 64.8592C142.25 64.8592 144.453 65.9747 145.859 68.2056C147.266 70.4366 147.969 73.9225 147.969 78.5704V81.731V84.3338C147.969 88.7028 147.688 91.5845 147.125 92.8859C146.563 94.1873 145.531 95.0704 143.984 95.5352V96C144.969 95.9535 146 95.907 147.031 95.8606C148.062 95.8141 149.469 95.8141 151.156 95.8141C152.281 95.8141 153.406 95.8141 154.531 95.8606C155.656 95.907 156.781 95.9535 157.953 96L158 95.5352C156.5 95.0704 155.422 94.1873 154.859 92.9324Z" fill="#F0E8CD"/>
<path d="M196 95.5812C193.442 94.2316 190.512 91.1138 187.302 86.2275C186.512 85.0641 185.907 84.1334 185.488 83.575C183.535 80.7363 181.674 78.8283 179.907 77.8511C178.14 76.8738 175.86 76.4085 173.07 76.3619L180.419 70.8707C180.558 70.7311 180.791 70.5915 181.116 70.3588C185.86 66.8221 190.093 64.728 193.86 64.03L193.814 63.6112C193.023 63.6577 192.14 63.7042 191.163 63.7042C190.186 63.7042 188.651 63.7508 186.605 63.7508C184.884 63.7508 183.628 63.7508 182.791 63.7042C181.953 63.7042 181.163 63.6577 180.419 63.6112V63.9835C181.07 64.1231 181.488 64.3092 181.767 64.5419C182.047 64.7746 182.14 65.0538 182.14 65.3795C182.14 65.938 181.814 66.5895 181.163 67.3806C180.512 68.1717 179.302 69.2885 177.535 70.7777L169.907 77.2927V62.8201C169.907 60.0745 169.907 57.7477 169.953 55.8862C170 54.0248 170.047 52.3961 170.14 51C168.372 51.605 166.698 52.0703 165.116 52.4426C163.535 52.8149 162 53.0941 160.558 53.2802V53.7456C161.907 53.8387 162.791 54.211 163.302 54.9555C163.767 55.7001 164 57.6546 164 60.9121V80.6432V83.3888C164 88.182 163.721 91.2999 163.163 92.696C162.605 94.092 161.535 95.0693 160 95.5346L160.047 96C161.163 95.9535 162.233 95.9069 163.302 95.8604C164.372 95.8139 165.581 95.8139 166.93 95.8139C168.744 95.8139 170.14 95.8139 171.163 95.8604C172.186 95.9069 173.163 95.9535 174.047 96V95.5346C172.465 95.0693 171.349 93.999 170.791 92.4168C170.233 90.8345 169.953 87.484 169.953 82.3185C169.953 80.7828 170.14 79.7125 170.465 79.061C170.837 78.4561 171.395 78.1303 172.233 78.1303C174 78.1303 177.442 82.5047 182.512 91.2534C183.674 93.3009 184.605 94.8366 185.256 95.9535C186.047 95.9069 186.837 95.8604 187.628 95.8604C188.419 95.8604 189.302 95.8139 190.233 95.8139C191.674 95.8139 192.791 95.8139 193.581 95.8604C194.372 95.8604 195.163 95.9069 195.954 95.9535V95.5812H196Z" fill="#F0E8CD"/>
<path d="M230 95.8292C228.62 95.5482 227.608 94.5179 226.963 92.832C226.319 91.146 226.043 88.5234 226.043 84.9642V76.8154C226.043 73.7713 225.721 71.4298 225.123 69.8375C224.525 68.2452 223.513 66.8871 222.087 65.8568C220.752 64.8733 219.234 64.1708 217.486 63.7025C215.737 63.2342 213.759 63 211.551 63C208.928 63 206.444 63.281 204.097 63.7961C201.751 64.3581 199.589 65.1543 197.518 66.2314L199.451 72.5537H199.773C200.187 70.0248 201.337 68.011 203.315 66.4656C205.294 64.9201 207.686 64.1708 210.585 64.1708C213.851 64.1708 216.244 65.1543 217.762 67.0744C219.28 68.9945 220.062 72.0854 220.108 76.2534L219.74 76.3003C211.965 76.3003 206.076 77.1901 202.027 78.9697C198.024 80.7493 196 83.3719 196 86.8375C196 89.8347 197.15 92.27 199.451 94.1432C201.751 96.0165 204.696 97 208.33 97C210.907 97 213.207 96.3912 215.277 95.2204C217.348 94.0496 218.958 92.3636 220.154 90.2094C220.43 91.3802 220.706 92.4573 221.074 93.4408C221.442 94.4242 221.857 95.314 222.317 96.157H224.387C225.031 96.157 225.767 96.157 226.549 96.2039C227.332 96.2039 228.482 96.2507 229.908 96.2975V95.8292H230ZM220.154 79.6253C220.154 85.1047 219.372 89.0854 217.808 91.4738C216.244 93.9091 213.713 95.1267 210.309 95.1267C208.008 95.1267 206.214 94.4242 204.926 93.0193C203.591 91.6143 202.947 89.6942 202.947 87.259C202.947 84.1212 204.235 81.7328 206.766 80.0468C209.342 78.3609 212.977 77.5179 217.808 77.5179C218.406 77.5179 218.912 77.5179 219.234 77.5179C219.556 77.5179 219.878 77.5647 220.2 77.5647V79.6253H220.154Z" fill="#F0E8CD"/>
<path d="M242.66 92.5994C242.065 91.0621 241.791 87.7547 241.791 82.5839V62.8323C241.791 60.8292 241.837 58.8727 241.882 56.9627C241.928 55.0528 242.02 53.0497 242.157 51C240.327 51.6056 238.588 52.0714 237.033 52.4441C235.477 52.8168 233.967 53.0963 232.549 53.2826V53.7484C233.922 53.8416 234.837 54.2609 235.34 55.0062C235.843 55.7981 236.072 57.5217 236.072 60.177V80.6273V83.5621C236.072 88.0342 235.797 91.0621 235.203 92.5528C234.608 94.0435 233.556 95.0683 232 95.5342V96C233.007 95.9534 234.059 95.9068 235.111 95.8602C236.163 95.8137 237.399 95.8137 238.909 95.8137C240.647 95.8137 242.02 95.8137 243.026 95.8602C244.033 95.9068 245.039 95.9534 245.954 96L246 95.5342C244.307 95.1149 243.209 94.0901 242.66 92.5994Z" fill="#F0E8CD"/>
<path d="M63.1278 57.2549C63.4558 57.5909 63.8307 57.9268 64.2993 58.1668C64.721 58.4068 65.1427 58.5987 65.5644 58.7427C65.9862 58.8867 66.4079 58.9347 66.7827 58.9827C67.6731 59.0307 68.5165 58.9827 69.2194 58.7907C69.9691 58.5987 70.5314 58.3588 71 58.0228L70.6251 57.3989C69.7348 57.9748 68.7039 58.2148 67.5325 58.1188C66.4547 58.0228 65.6113 57.5909 64.9084 56.871C64.2055 56.1511 63.8307 55.2392 63.6901 54.1353C63.5495 53.0315 63.737 52.0716 64.2524 51.2077C64.7678 50.3918 65.4239 49.9119 66.2673 49.7679C67.2513 49.6239 68.0948 49.9599 68.7508 50.7278H70.672C70.2503 50.1998 69.688 49.7679 68.9851 49.4799C68.3291 49.192 67.6262 49 66.9233 49C65.4707 49 64.2993 49.4799 63.3621 50.4398C62.4249 51.3997 61.9563 52.5515 62.0032 53.9913C62.0032 54.6633 62.0969 55.2392 62.3312 55.8151C62.5186 56.439 62.7998 56.919 63.1278 57.2549Z" fill="#F0E8CD"/>
<path d="M83.8483 57.2375C83.1232 57.819 82.1848 58.0613 81.1185 58.0128C80.2654 57.9643 79.5403 57.6736 78.9005 57.1406C78.2607 56.5591 77.8768 55.7354 77.7062 54.6693C77.6635 54.3302 77.6635 54.0879 77.6635 53.894H83.3791H85C84.9147 52.5857 84.4455 51.4228 83.5924 50.4537C82.7393 49.4846 81.7156 49 80.5213 49C79.1991 49 78.1327 49.4846 77.2796 50.4537C76.4265 51.4228 76 52.5857 76 53.991C76 55.3477 76.4265 56.5107 77.2796 57.4313C78.1327 58.352 79.1991 58.885 80.5213 58.9819C81.9716 59.0788 83.2085 58.7881 84.2749 58.0613L83.8483 57.2375ZM78.4739 50.8413C78.8578 50.3568 79.3697 50.066 79.9668 49.9691C80.0948 49.9691 80.1801 49.9691 80.2654 49.9691C80.9052 49.9691 81.5024 50.2114 82.0569 50.7444C82.6114 51.229 82.9953 51.9074 83.2085 52.7796H77.7062C77.8341 51.9074 78.09 51.2774 78.4739 50.8413Z" fill="#F0E8CD"/>
<path d="M92.8049 52.3134C92.8049 51.6418 93 51.1045 93.439 50.7015C93.878 50.2985 94.3659 50.0746 94.9512 50.0746C95.5366 50.0746 96.0732 50.2985 96.5122 50.7463L97 49.4478C96.5122 49.1791 95.9268 49 95.2927 49C94.3171 49 93.4878 49.3134 92.7561 49.9403V49.2239H91V58H92.7561V52.3134H92.8049Z" fill="#F0E8CD"/>
<path d="M102 49.2687V58H103.475V52.3134C103.475 51.6418 103.639 51.1045 104.008 50.7015C104.377 50.2985 104.787 50.0746 105.279 50.0746C105.77 50.0746 106.221 50.2985 106.59 50.7463L107 49.4478C106.59 49.1791 106.098 49 105.566 49C104.746 49 104.049 49.3134 103.434 49.9403V49.2239H102V49.2687Z" fill="#F0E8CD"/>
<path d="M122 58.7087V49.2913H121.423L120.269 49.9709C119.308 49.2913 118.25 49 117.048 49C115.606 49 114.356 49.4854 113.442 50.4563C112.481 51.4272 112 52.5922 112 54C112 55.4078 112.481 56.5728 113.442 57.5437C114.404 58.5146 115.606 59 117.096 59C118.25 59 119.356 58.6602 120.317 58.0291V58.7573H122V58.7087ZM120.029 56.9612C119.885 57.2524 119.644 57.4466 119.356 57.6408C119.067 57.7864 118.827 57.932 118.538 58.0291C118.25 58.1262 117.962 58.1748 117.721 58.1748C116.808 58.2233 115.99 57.8835 115.269 57.1553C114.548 56.4757 114.067 55.5534 113.875 54.3884C113.683 53.2233 113.875 52.2039 114.356 51.2816C114.885 50.3592 115.558 49.8252 116.423 49.7282C116.423 49.7282 116.471 49.7282 116.567 49.7282C116.663 49.7282 116.712 49.6796 116.76 49.6796C117.577 49.6796 118.298 49.9223 118.971 50.5049C119.644 51.0388 120.077 51.7184 120.269 52.4466V55.9417C120.269 56.3301 120.173 56.6699 120.029 56.9612Z" fill="#F0E8CD"/>
<path d="M128.435 50.9213C127.478 51.8393 127 52.941 127 54.2721C127 55.6033 127.478 56.7049 128.435 57.623C129.392 58.541 130.589 59 132.072 59C133.22 59 134.321 58.6787 135.278 58.082L136.426 58.7705H137V45H135.278C135.278 45.6426 135.278 47.4787 135.278 50.5082C134.321 49.8656 133.268 49.5902 132.072 49.5902C130.589 49.5443 129.392 50.0033 128.435 50.9213ZM135.23 52.8951V56.2C135.23 56.5672 135.134 56.8885 134.99 57.1639C134.847 57.4393 134.608 57.6229 134.321 57.8066C134.033 57.9443 133.794 58.082 133.507 58.1738C133.22 58.2656 132.981 58.3115 132.694 58.3115C131.785 58.3574 130.971 58.0361 130.254 57.3475C129.536 56.7049 129.057 55.8328 128.866 54.7311C128.675 53.6295 128.866 52.6656 129.345 51.7934C129.871 50.9213 130.541 50.4164 131.402 50.3246C131.545 50.3246 131.689 50.3246 131.737 50.3246C132.55 50.3246 133.316 50.5541 133.938 51.059C134.608 51.5639 135.038 52.1607 135.23 52.8951Z" fill="#F0E8CD"/>
<path d="M144.257 57.5366C145.122 58.5122 146.204 59 147.545 59C148.583 59 149.578 58.6585 150.443 58.0244V58.7561H152V49.2927H151.481L150.443 49.9756C149.578 49.2927 148.626 49 147.545 49C146.247 49 145.122 49.4878 144.301 50.4634C143.436 51.439 143.003 52.6098 143.003 54.0244C142.96 55.3902 143.392 56.561 144.257 57.5366ZM145.079 51.3415C145.555 50.4146 146.161 49.878 146.939 49.7805C146.939 49.7805 146.982 49.7805 147.069 49.7805C147.155 49.7805 147.199 49.7317 147.242 49.7317C147.977 49.7317 148.626 49.9756 149.232 50.561C149.837 51.0976 150.227 51.7805 150.4 52.5122V56.0244C150.4 56.4146 150.313 56.7561 150.183 57.0488C150.054 57.3415 149.837 57.5366 149.578 57.7317C149.318 57.878 149.102 58.0244 148.842 58.1219C148.583 58.2195 148.367 58.2683 148.107 58.2683C147.285 58.3171 146.55 57.9756 145.901 57.2439C145.252 56.561 144.82 55.6341 144.647 54.4634C144.474 53.2439 144.603 52.2195 145.079 51.3415Z" fill="#F0E8CD"/>
</svg>
