<svg width="310" height="52" viewBox="0 0 310 52" fill="none" xmlns="http://www.w3.org/2000/svg">
<path d="M306.66 47.5994C306.065 46.0621 305.791 42.7547 305.791 37.5839V17.8323C305.791 15.8292 305.837 13.8727 305.882 11.9627C305.928 10.0528 306.02 8.04969 306.157 6C304.327 6.60559 302.588 7.07143 301.033 7.4441C299.477 7.81677 297.967 8.09627 296.549 8.28261V8.74845C297.922 8.84162 298.837 9.26087 299.34 10.0062C299.843 10.7981 300.072 12.5217 300.072 15.177V35.6273V38.5621C300.072 43.0342 299.797 46.0621 299.203 47.5528C298.608 49.0435 297.556 50.0683 296 50.5342V51C297.007 50.9534 298.059 50.9068 299.111 50.8602C300.163 50.8137 301.399 50.8137 302.909 50.8137C304.647 50.8137 306.02 50.8137 307.026 50.8602C308.033 50.9068 309.039 50.9534 309.954 51L310 50.5342C308.307 50.1149 307.209 49.0901 306.66 47.5994Z" fill="#F0E8CD"/>
<path d="M2.63637 50.8463C3.90909 51.0197 5.45455 51.063 7.27273 50.8896C9.09091 50.7596 10 50.4995 10 50.1527C10 49.9359 9.09091 49.0256 7.31818 47.4217C6.59091 46.7714 5.72728 46.1212 4.72728 45.4709C3.72728 44.8207 2.90909 44.3438 2.27273 44.0404L0 43L0.363638 50.4128L2.63637 50.8463Z" fill="#F0E8CD"/>
<path d="M9.7592 28.195C13.464 32.7589 15.8259 35.3404 16.7984 35.9858L18.4656 37L19.8086 35.8936C20.8274 35.0638 22.4946 33.4504 24.8101 31.0993C27.1257 28.7482 29.256 26.4433 31.201 24.1844C33.9333 21.0035 35.971 18.6986 37.3603 17.2234C38.3328 16.0709 39.0275 15.195 39.398 14.5035C39.8147 13.8582 40 13.2128 40 12.6135C40 11.5532 39.7221 11 39.1664 11C38.6107 11 38.055 11.3688 37.4529 12.1064C37.0824 12.5213 36.3878 13.3511 35.3226 14.6418C35.0448 14.9645 34.489 15.6099 33.7018 16.5319C32.8682 17.4539 32.3588 18.0993 32.1272 18.422C27.6351 23.539 24.5323 26.9043 22.8651 28.5177C21.4758 29.8085 20.4106 30.8688 19.716 31.7908C19.1602 32.5745 18.5582 32.8511 17.9099 32.6667C17.4004 32.4823 15.7333 30.6844 12.9546 27.2269C10.176 23.7695 7.95309 20.7731 6.2396 18.2376C4.66504 15.8404 3.50728 14.273 2.81262 13.4433C2.11796 12.6135 1.51592 12.1525 1.0065 12.1064C0.72864 12.0603 0.543403 12.0603 0.404471 12.1525C-0.475429 12.6135 0.0802932 14.5035 2.07165 17.8227C3.50727 20.1738 6.05436 23.6312 9.7592 28.195Z" fill="#F0E8CD"/>
<path d="M11.2763 18.1603C12.0883 19.1374 12.8048 19.9284 13.3302 20.5798C13.9034 21.2312 14.4288 21.8361 14.9064 22.3944C15.3841 22.9528 15.814 23.3715 16.1483 23.6972C16.4827 24.0229 16.817 24.2555 17.1036 24.4882C17.3902 24.7208 17.6768 24.8604 17.9156 24.9069C18.1544 25 18.3455 25 18.5365 25C18.7276 25 18.9664 24.9535 19.2052 24.8604C19.5396 24.7208 20.0172 24.3951 20.6859 23.8368C21.3546 23.325 21.9278 22.7666 22.4532 22.1618C23.9339 20.5798 25.5101 18.9979 27.2774 17.4159C29.0925 15.6943 30 14.4381 30 13.7402C30 13.2283 29.8567 12.8561 29.5701 12.67C29.2835 12.4839 28.5671 12.3443 27.4207 12.2513C25.2713 11.9721 21.6412 11.9256 16.6737 12.1117C11.6585 12.2513 8.88812 12.5304 8.36271 12.9026C7.93283 13.1818 7.88507 13.6471 8.21942 14.2054C8.55377 14.7638 9.60458 16.1131 11.2763 18.1603Z" fill="#F0E8CD"/>
<path d="M40.1358 50.503C40.7143 50.373 41.1964 50.1996 41.6302 49.9396C42.0641 49.7229 42.3533 49.3329 42.5462 48.8562C42.739 48.3795 42.8354 47.8161 42.9318 47.166C42.98 46.516 43.0282 45.6492 42.98 44.5658C42.8836 41.7055 42.7872 40.1021 42.6426 39.7554C42.5462 39.582 42.498 39.4087 42.498 39.3653C42.3051 38.9753 41.9677 38.8886 41.4374 39.1486C40.8107 39.4953 38.2075 41.5322 33.6761 45.3025C32.4227 46.3426 31.3139 47.296 30.398 48.2061C29.4821 49.0729 29 49.6363 29 49.8529C29 50.243 29.9159 50.5897 31.6996 50.8064C33.5315 51.023 35.5079 51.0664 37.7255 50.893C38.786 50.7197 39.5573 50.633 40.1358 50.503Z" fill="#F0E8CD"/>
<path d="M37.7991 22.7593C37.1026 23.4679 36.406 24.2238 35.8024 25.0269C35.0594 25.9717 34.1307 27.1055 33.0162 28.3337C31.9017 29.6092 30.973 30.6013 30.2765 31.4044C29.5799 32.2075 28.419 33.3885 26.8866 34.9474C25.3542 36.5536 24.3791 37.4984 24.054 37.8764C21.8715 40.1439 20.432 41.7501 19.7819 42.6949C19.4104 43.1673 18.9924 43.5453 18.5745 43.876C18.1566 44.1594 17.7851 44.3011 17.5529 44.2539C17.0886 44.2066 16.0205 43.2146 14.3488 41.3722C12.6307 39.4826 10.8197 37.3095 8.91577 34.7585C7.70843 33.1523 6.68683 31.8768 5.89741 30.8847C3.38985 27.7668 1.76458 26.2551 1.0216 26.4441C0.32506 26.5858 0 28.3337 0 31.5933V36.4119L3.5756 39.3881C9.56588 44.4428 13.1879 47.3718 14.3952 48.2693C15.6026 49.1669 16.8564 49.6866 18.1566 49.8283L18.203 49.8755C19.9676 50.1117 21.6393 50.0173 23.1717 49.5448C24.7041 49.1197 25.865 48.4111 26.7009 47.4663C27.5367 46.427 31.5302 42.1753 38.7743 34.664C40.6782 32.7271 41.8391 31.3099 42.3035 30.4123C42.7214 29.5147 42.9536 28.192 43 26.3024C43 24.1765 42.6749 22.7121 41.9784 21.909C41.514 21.3893 41.1425 21.0586 40.8639 21.0114C40.5853 20.9642 40.1674 21.0586 39.6102 21.3893C39.0529 21.6255 38.4957 22.0979 37.7991 22.7593Z" fill="#F0E8CD"/>
<path d="M102.022 38.8172C101.323 42.4714 99.6947 45.3855 97.1816 47.5132C94.6686 49.641 91.597 50.7048 87.9671 50.7048C83.2202 50.7048 79.4041 48.9009 76.5187 45.293C73.6334 41.685 72.1907 36.8744 72.1907 30.815C72.1907 24.848 73.6334 20.13 76.5187 16.6145C79.4041 13.0991 83.2667 11.3414 88.1532 11.3414C91.504 11.3414 94.2497 12.2203 96.3905 13.9317C98.5312 15.6432 100.114 18.2797 101.137 21.7952L101.742 21.9339L103.837 14.533C101.463 13.0529 98.857 11.8965 96.0647 11.1564C93.2259 10.37 90.294 10 87.1759 10C80.2883 10 74.7037 11.8965 70.4222 15.7357C66.1407 19.5749 64 24.5705 64 30.7687C64 37.1057 66.1407 42.1938 70.4222 46.1256C74.7037 50.0573 80.2418 52 87.0363 52C90.5267 52 93.7378 51.5374 96.6697 50.6586C99.6016 49.7797 102.394 48.3921 105 46.4956L102.58 38.6784L102.022 38.8172Z" fill="#F0E8CD"/>
<path d="M141.91 48.0248C141.348 46.7696 141.067 43.8409 141.067 39.1457V38.4483V33.0558C141.067 27.8492 140.037 24.0837 137.977 21.6198C135.917 19.2025 132.733 17.9938 128.379 17.9938C125.242 17.9938 122.574 18.7376 120.42 20.2717C118.267 21.8058 116.768 23.9442 115.879 26.8264V17.7149C115.879 15.1116 115.926 12.9266 115.972 11.0671C116.019 9.20764 116.113 7.53409 116.206 6C114.381 6.65083 112.648 7.16219 111.056 7.53409C109.465 7.90599 107.966 8.13843 106.609 8.27789V8.74277C107.966 8.83574 108.856 9.25413 109.324 9.95145C109.792 10.6952 110.026 12.3688 110.026 14.9256V36.7748V38.8203C110.026 43.469 109.745 46.4907 109.184 47.8388C108.622 49.2335 107.545 50.1167 106 50.5351L106.047 51C107.03 50.9535 108.013 50.907 109.09 50.8605C110.12 50.814 111.525 50.814 113.257 50.814C114.381 50.814 115.504 50.814 116.628 50.8605C117.751 50.907 118.875 50.9535 120.046 51V50.5351C118.501 50.1167 117.471 49.28 116.909 47.9318C116.347 46.5837 116.066 43.469 116.066 38.5878V33.6136C116.066 29.3833 117.002 26.0362 118.875 23.5723C120.748 21.1085 123.276 19.8533 126.413 19.8533C129.316 19.8533 131.516 20.969 132.921 23.2004C134.325 25.4318 135.028 28.9184 135.028 33.5671V36.7283V38.7738C135.028 43.376 134.747 46.3977 134.185 47.7924C133.623 49.187 132.546 50.0702 131.001 50.5351V51C131.984 50.9535 132.968 50.907 134.044 50.8605C135.074 50.814 136.479 50.814 138.164 50.814C139.288 50.814 140.412 50.814 141.535 50.8605C142.659 50.907 143.783 50.9535 144.953 51L145 50.5351C143.549 50.1167 142.519 49.28 141.91 48.0248Z" fill="#F0E8CD"/>
<path d="M176.997 22.7091C173.678 19.554 169.377 18 164.094 18C158.764 18 154.416 19.554 151.049 22.662C147.683 25.7701 146 29.7729 146 34.6704C146 39.8033 147.636 43.9945 150.956 47.1967C154.229 50.3989 158.53 52 163.86 52C169.283 52 173.678 50.446 176.997 47.2909C180.317 44.1357 182 40.0388 182 34.9529C181.953 29.9612 180.27 25.8643 176.997 22.7091ZM172.088 46.7258C170.218 49.4571 167.506 50.8698 164.047 50.8698C160.54 50.8698 157.782 49.5042 155.912 46.7258C153.995 43.9474 153.06 40.0388 153.06 34.9058C153.06 29.9612 154.042 26.0997 155.958 23.3213C157.875 20.5429 160.54 19.1302 163.906 19.1302C167.46 19.1302 170.171 20.4958 172.088 23.2271C174.005 25.9584 174.94 29.867 174.94 34.9529C174.94 40.0859 174.005 43.9945 172.088 46.7258Z" fill="#F0E8CD"/>
<path d="M218.859 47.9324C218.297 46.6775 218.016 43.5169 218.016 38.4507V33.0592C218.016 27.8535 216.984 24.0887 214.922 21.6254C212.859 19.2085 209.672 18 205.359 18C202.031 18 199.312 18.8366 197.156 20.4634C195 22.1366 193.453 24.6 192.469 27.9V18.7901C190.875 19.3479 189.328 19.8127 187.828 20.1845C186.375 20.5563 184.969 20.8352 183.562 21.0211V21.4859C184.875 21.5789 185.813 21.9507 186.281 22.6944C186.75 23.438 186.984 25.1113 186.984 27.7606V36.731V39.3338C186.984 43.7493 186.703 46.5845 186.141 47.8859C185.578 49.1873 184.547 50.0704 183 50.5352V51C183.984 50.9535 184.969 50.907 186.047 50.8606C187.078 50.8141 188.484 50.8141 190.219 50.8141C191.344 50.8141 192.469 50.8141 193.594 50.8606C194.719 50.907 195.844 50.9535 197.016 51V50.5352C195.516 50.1169 194.484 49.2803 193.875 47.9324C193.312 46.5845 193.031 43.4704 193.031 38.5901V33.6169C193.031 29.3873 193.969 26.0408 195.844 23.5775C197.719 21.1141 200.203 19.8592 203.344 19.8592C206.25 19.8592 208.453 20.9747 209.859 23.2056C211.266 25.4366 211.969 28.9225 211.969 33.5704V36.731V39.3338C211.969 43.7028 211.688 46.5845 211.125 47.8859C210.563 49.1873 209.531 50.0704 207.984 50.5352V51C208.969 50.9535 210 50.907 211.031 50.8606C212.062 50.8141 213.469 50.8141 215.156 50.8141C216.281 50.8141 217.406 50.8141 218.531 50.8606C219.656 50.907 220.781 50.9535 221.953 51L222 50.5352C220.5 50.0704 219.422 49.1873 218.859 47.9324Z" fill="#F0E8CD"/>
<path d="M260 50.5812C257.442 49.2316 254.512 46.1138 251.302 41.2275C250.512 40.0641 249.907 39.1334 249.488 38.575C247.535 35.7363 245.674 33.8283 243.907 32.8511C242.14 31.8738 239.86 31.4085 237.07 31.3619L244.419 25.8707C244.558 25.7311 244.791 25.5915 245.116 25.3588C249.86 21.8221 254.093 19.728 257.86 19.03L257.814 18.6112C257.023 18.6577 256.14 18.7042 255.163 18.7042C254.186 18.7042 252.651 18.7508 250.605 18.7508C248.884 18.7508 247.628 18.7508 246.791 18.7042C245.953 18.7042 245.163 18.6577 244.419 18.6112V18.9835C245.07 19.1231 245.488 19.3092 245.767 19.5419C246.047 19.7746 246.14 20.0538 246.14 20.3795C246.14 20.938 245.814 21.5895 245.163 22.3806C244.512 23.1717 243.302 24.2885 241.535 25.7777L233.907 32.2927V17.8201C233.907 15.0745 233.907 12.7477 233.953 10.8862C234 9.02482 234.047 7.39607 234.14 6C232.372 6.60496 230.698 7.07032 229.116 7.44261C227.535 7.81489 226 8.09411 224.558 8.28025V8.74561C225.907 8.83868 226.791 9.21096 227.302 9.95553C227.767 10.7001 228 12.6546 228 15.9121V35.6432V38.3888C228 43.182 227.721 46.2999 227.163 47.696C226.605 49.092 225.535 50.0693 224 50.5346L224.047 51C225.163 50.9535 226.233 50.9069 227.302 50.8604C228.372 50.8139 229.581 50.8139 230.93 50.8139C232.744 50.8139 234.14 50.8139 235.163 50.8604C236.186 50.9069 237.163 50.9535 238.047 51V50.5346C236.465 50.0693 235.349 48.999 234.791 47.4168C234.233 45.8345 233.953 42.484 233.953 37.3185C233.953 35.7828 234.14 34.7125 234.465 34.061C234.837 33.4561 235.395 33.1303 236.233 33.1303C238 33.1303 241.442 37.5047 246.512 46.2534C247.674 48.3009 248.605 49.8366 249.256 50.9535C250.047 50.9069 250.837 50.8604 251.628 50.8604C252.419 50.8604 253.302 50.8139 254.233 50.8139C255.674 50.8139 256.791 50.8139 257.581 50.8604C258.372 50.8604 259.163 50.9069 259.954 50.9535V50.5812H260Z" fill="#F0E8CD"/>
<path d="M294 50.8292C292.62 50.5482 291.608 49.5179 290.963 47.832C290.319 46.146 290.043 43.5234 290.043 39.9642V31.8154C290.043 28.7713 289.721 26.4298 289.123 24.8375C288.525 23.2452 287.513 21.8871 286.087 20.8568C284.752 19.8733 283.234 19.1708 281.486 18.7025C279.737 18.2342 277.759 18 275.551 18C272.928 18 270.444 18.281 268.097 18.7961C265.751 19.3581 263.589 20.1543 261.518 21.2314L263.451 27.5537H263.773C264.187 25.0248 265.337 23.011 267.315 21.4656C269.294 19.9201 271.686 19.1708 274.585 19.1708C277.851 19.1708 280.244 20.1543 281.762 22.0744C283.28 23.9945 284.062 27.0854 284.108 31.2534L283.74 31.3003C275.965 31.3003 270.076 32.1901 266.027 33.9697C262.024 35.7493 260 38.3719 260 41.8375C260 44.8347 261.15 47.27 263.451 49.1432C265.751 51.0165 268.696 52 272.33 52C274.907 52 277.207 51.3912 279.277 50.2204C281.348 49.0496 282.958 47.3636 284.154 45.2094C284.43 46.3802 284.706 47.4573 285.074 48.4408C285.442 49.4242 285.857 50.314 286.317 51.157H288.387C289.031 51.157 289.767 51.157 290.549 51.2039C291.332 51.2039 292.482 51.2507 293.908 51.2975V50.8292H294ZM284.154 34.6253C284.154 40.1047 283.372 44.0854 281.808 46.4738C280.244 48.9091 277.713 50.1267 274.309 50.1267C272.008 50.1267 270.214 49.4242 268.926 48.0193C267.591 46.6143 266.947 44.6942 266.947 42.259C266.947 39.1212 268.235 36.7328 270.766 35.0468C273.342 33.3609 276.977 32.5179 281.808 32.5179C282.406 32.5179 282.912 32.5179 283.234 32.5179C283.556 32.5179 283.878 32.5647 284.2 32.5647V34.6253H284.154Z" fill="#F0E8CD"/>
<path d="M127.128 12.2549C127.456 12.5909 127.831 12.9268 128.299 13.1668C128.721 13.4068 129.143 13.5987 129.564 13.7427C129.986 13.8867 130.408 13.9347 130.783 13.9827C131.673 14.0307 132.517 13.9827 133.219 13.7907C133.969 13.5987 134.531 13.3588 135 13.0228L134.625 12.3989C133.735 12.9748 132.704 13.2148 131.532 13.1188C130.455 13.0228 129.611 12.5909 128.908 11.871C128.206 11.1511 127.831 10.2392 127.69 9.13533C127.55 8.03147 127.737 7.0716 128.252 6.20771C128.768 5.39182 129.424 4.91188 130.267 4.7679C131.251 4.62392 132.095 4.95987 132.751 5.72777H134.672C134.25 5.19984 133.688 4.7679 132.985 4.47994C132.329 4.19197 131.626 4 130.923 4C129.471 4 128.299 4.47994 127.362 5.43981C126.425 6.39969 125.956 7.55154 126.003 8.99135C126.003 9.66326 126.097 10.2392 126.331 10.8151C126.519 11.439 126.8 11.919 127.128 12.2549Z" fill="#F0E8CD"/>
<path d="M147.848 12.2375C147.123 12.819 146.185 13.0613 145.118 13.0128C144.265 12.9643 143.54 12.6736 142.9 12.1406C142.261 11.5591 141.877 10.7354 141.706 9.66935C141.664 9.33016 141.664 9.08787 141.664 8.89405H147.379H149C148.915 7.58574 148.445 6.4228 147.592 5.45368C146.739 4.48456 145.716 4 144.521 4C143.199 4 142.133 4.48456 141.28 5.45368C140.427 6.4228 140 7.58574 140 8.99096C140 10.3477 140.427 11.5107 141.28 12.4313C142.133 13.352 143.199 13.885 144.521 13.9819C145.972 14.0788 147.209 13.7881 148.275 13.0613L147.848 12.2375ZM142.474 5.84132C142.858 5.35676 143.37 5.06603 143.967 4.96912C144.095 4.96912 144.18 4.96912 144.265 4.96912C144.905 4.96912 145.502 5.2114 146.057 5.74441C146.611 6.22897 146.995 6.90735 147.209 7.77956H141.706C141.834 6.90735 142.09 6.27743 142.474 5.84132Z" fill="#F0E8CD"/>
<path d="M156.805 7.31343C156.805 6.64179 157 6.10448 157.439 5.70149C157.878 5.29851 158.366 5.07463 158.951 5.07463C159.537 5.07463 160.073 5.29851 160.512 5.74627L161 4.44776C160.512 4.1791 159.927 4 159.293 4C158.317 4 157.488 4.31343 156.756 4.9403V4.22388H155V13H156.756V7.31343H156.805Z" fill="#F0E8CD"/>
<path d="M166 4.26866V13H167.475V7.31343C167.475 6.64179 167.639 6.10448 168.008 5.70149C168.377 5.29851 168.787 5.07463 169.279 5.07463C169.77 5.07463 170.221 5.29851 170.59 5.74627L171 4.44776C170.59 4.1791 170.098 4 169.566 4C168.746 4 168.049 4.31343 167.434 4.9403V4.22388H166V4.26866Z" fill="#F0E8CD"/>
<path d="M186 13.7087V4.29126H185.423L184.269 4.97087C183.308 4.29126 182.25 4 181.048 4C179.606 4 178.356 4.48544 177.442 5.45631C176.481 6.42718 176 7.59223 176 9C176 10.4078 176.481 11.5728 177.442 12.5437C178.404 13.5146 179.606 14 181.096 14C182.25 14 183.356 13.6602 184.317 13.0291V13.7573H186V13.7087ZM184.029 11.9612C183.885 12.2524 183.644 12.4466 183.356 12.6408C183.067 12.7864 182.827 12.932 182.538 13.0291C182.25 13.1262 181.962 13.1748 181.721 13.1748C180.808 13.2233 179.99 12.8835 179.269 12.1553C178.548 11.4757 178.067 10.5534 177.875 9.38835C177.683 8.2233 177.875 7.20388 178.356 6.28155C178.885 5.35922 179.558 4.82524 180.423 4.72816C180.423 4.72816 180.471 4.72816 180.567 4.72816C180.663 4.72816 180.712 4.67961 180.76 4.67961C181.577 4.67961 182.298 4.92233 182.971 5.50485C183.644 6.03883 184.077 6.71844 184.269 7.4466V10.9417C184.269 11.3301 184.173 11.6699 184.029 11.9612Z" fill="#F0E8CD"/>
<path d="M192.435 5.92131C191.478 6.83934 191 7.94098 191 9.27213C191 10.6033 191.478 11.7049 192.435 12.623C193.392 13.541 194.589 14 196.072 14C197.22 14 198.321 13.6787 199.278 13.082L200.426 13.7705H201V0H199.278C199.278 0.642623 199.278 2.47869 199.278 5.5082C198.321 4.86557 197.268 4.59016 196.072 4.59016C194.589 4.54426 193.392 5.00328 192.435 5.92131ZM199.23 7.89508V11.2C199.23 11.5672 199.134 11.8885 198.99 12.1639C198.847 12.4393 198.608 12.6229 198.321 12.8066C198.033 12.9443 197.794 13.082 197.507 13.1738C197.22 13.2656 196.981 13.3115 196.694 13.3115C195.785 13.3574 194.971 13.0361 194.254 12.3475C193.536 11.7049 193.057 10.8328 192.866 9.73115C192.675 8.62951 192.866 7.66557 193.345 6.79344C193.871 5.92131 194.541 5.41639 195.402 5.32459C195.545 5.32459 195.689 5.32459 195.737 5.32459C196.55 5.32459 197.316 5.5541 197.938 6.05901C198.608 6.56393 199.038 7.16065 199.23 7.89508Z" fill="#F0E8CD"/>
<path d="M208.257 12.5366C209.122 13.5122 210.204 14 211.545 14C212.583 14 213.578 13.6585 214.443 13.0244V13.7561H216V4.29268H215.481L214.443 4.97561C213.578 4.29268 212.626 4 211.545 4C210.247 4 209.122 4.4878 208.301 5.46341C207.436 6.43902 207.003 7.60976 207.003 9.02439C206.96 10.3902 207.392 11.561 208.257 12.5366ZM209.079 6.34146C209.555 5.41464 210.161 4.87805 210.939 4.78049C210.939 4.78049 210.982 4.78049 211.069 4.78049C211.155 4.78049 211.199 4.73171 211.242 4.73171C211.977 4.73171 212.626 4.97561 213.232 5.56097C213.837 6.09756 214.227 6.78049 214.4 7.51219V11.0244C214.4 11.4146 214.313 11.7561 214.183 12.0488C214.054 12.3415 213.837 12.5366 213.578 12.7317C213.318 12.878 213.102 13.0244 212.842 13.1219C212.583 13.2195 212.367 13.2683 212.107 13.2683C211.285 13.3171 210.55 12.9756 209.901 12.2439C209.252 11.561 208.82 10.6341 208.647 9.46341C208.474 8.2439 208.603 7.21951 209.079 6.34146Z" fill="#F0E8CD"/>
</svg>
